# xmcd
#
# Track frame offsets:
#	150
#	24674
#	56748
#	99770
#	113726
#	162479
#	190167
#	207122
#	246577
#	269625
#	321718
#
# Disc length: 4363
#
# Revision: 1
# Processed by: cddbd v1.5.1PL0 Copyright (c) Steve Scherf et al.
# Submitted via: CDex 1.51
# Normalized: r0:TRMNUM
#
DISCID=a411090b
DTITLE=Thelonious Monk - 85th Birthday Celebration 1958-1961 Blue Monk (3_3)
DYEAR=1900
DGENRE=Jazz
TTITLE0=Nutty
TTITLE1=In Walked Bud
TTITLE2=Friday The Thirteenth
TTITLE3=Thelonious
TTITLE4=Ask Me Now
TTITLE5=Jackie-ing
TTITLE6=Blue Monk
TTITLE7=Four In One
TTITLE8=Reflections
TTITLE9=Well, You Needn't
TTITLE10=Crepuscolo With Nellie
EXTD=
EXTT0=
EXTT1=
EXTT2=
EXTT3=
EXTT4=
EXTT5=
EXTT6=
EXTT7=
EXTT8=
EXTT9=
EXTT10=
PLAYORDER=
